<svg xmlns="http://www.w3.org/2000/svg" viewBox="0 0 300 150" width="300" height="150" role="img" aria-label="Bookflix: your next book, picked from the ones you loved. Built with Flutter, Flask, Firebase."><title>Bookflix: your next book, picked from the ones you loved. Built with Flutter, Flask, Firebase.</title><style></style><rect x=".5" y=".5" width="299" height="149" rx="10" fill="#0d1117" stroke="#30363d"/>
<g transform="translate(20,26)" fill="#f59e0b"><path d="M2 2.5A2.5 2.5 0 0 1 4.5 0h8.75a.75.75 0 0 1 .75.75v12.5a.75.75 0 0 1-.75.75h-2.5a.75.75 0 0 1 0-1.5h1.75v-2h-8a1 1 0 0 0-.714 1.7.75.75 0 1 1-1.072 1.05A2.495 2.495 0 0 1 2 11.5Zm10.5-1h-8a1 1 0 0 0-1 1v6.708A2.486 2.486 0 0 1 4.5 9h8ZM5 12.25a.25.25 0 0 1 .25-.25h3.5a.25.25 0 0 1 .25.25v3.25a.25.25 0 0 1-.4.2l-1.45-1.087a.249.249 0 0 0-.3 0L5.4 15.7a.25.25 0 0 1-.4-.2Z"/></g>
<text x="44" y="39" font-family="-apple-system,BlinkMacSystemFont,'Segoe UI','Noto Sans',Helvetica,Arial,sans-serif" font-size="17" font-weight="700" fill="#f59e0b">Bookflix</text>
<text x="20" y="70" font-family="-apple-system,BlinkMacSystemFont,'Segoe UI','Noto Sans',Helvetica,Arial,sans-serif" font-size="14" fill="#9198a1">your next book, picked from the ones</text><text x="20" y="89" font-family="-apple-system,BlinkMacSystemFont,'Segoe UI','Noto Sans',Helvetica,Arial,sans-serif" font-size="14" fill="#9198a1">you loved</text><rect x="20" y="110" width="68" height="22" rx="11" fill="#21262d"/><text x="29" y="125" font-family="ui-monospace,SFMono-Regular,'SF Mono',Menlo,Consolas,monospace" font-size="12" fill="#c9d1d9" textLength="50.4" lengthAdjust="spacingAndGlyphs">Flutter</text><rect x="94.4" y="110" width="54" height="22" rx="11" fill="#21262d"/><text x="103.4" y="125" font-family="ui-monospace,SFMono-Regular,'SF Mono',Menlo,Consolas,monospace" font-size="12" fill="#c9d1d9" textLength="36.0" lengthAdjust="spacingAndGlyphs">Flask</text><rect x="154.4" y="110" width="76" height="22" rx="11" fill="#21262d"/><text x="163.4" y="125" font-family="ui-monospace,SFMono-Regular,'SF Mono',Menlo,Consolas,monospace" font-size="12" fill="#c9d1d9" textLength="57.6" lengthAdjust="spacingAndGlyphs">Firebase</text></svg>
